<svg height="512" viewBox="0 0 64 64" width="512" xmlns="http://www.w3.org/2000/svg"><g id="data-program-code-computer-laptop"><path d="m61.27 58.21-5.27-19.34v-27.87a3.009 3.009 0 0 0 -3-3h-9.03a14.94 14.94 0 0 0 -23.94 0h-9.03a3.009 3.009 0 0 0 -3 3v27.87l-5.27 19.34a2.989 2.989 0 0 0 2.89 3.79h52.76a2.989 2.989 0 0 0 2.89-3.79zm-29.27-54.21a13 13 0 1 1 -13 13 13.012 13.012 0 0 1 13-13zm-22 7a1 1 0 0 1 1-1h7.74a15 15 0 1 0 26.52 0h7.74a1 1 0 0 1 1 1v27h-44zm49.18 48.61a.99.99 0 0 1 -.8.39h-52.76a.99.99 0 0 1 -.8-.39 1.02 1.02 0 0 1 -.17-.88l5.11-18.73h44.48l5.11 18.73a1.02 1.02 0 0 1 -.17.88z"/><path d="m40.97 52.758a1 1 0 0 0 -.97-.758h-16a1 1 0 0 0 -.97.758l-1 4a1 1 0 0 0 .97 1.242h18a1 1 0 0 0 .97-1.242zm-16.689 3.242.5-2h14.438l.5 2z"/><path d="m27 34h10v2h-10z"/><path d="m12 42h4v2h-4z"/><path d="m18 42h4v2h-4z"/><path d="m24 42h4v2h-4z"/><path d="m36 42h4v2h-4z"/><path d="m42 42h4v2h-4z"/><path d="m48 42h4v2h-4z"/><path d="m30 42h4v2h-4z"/><path d="m12 46h4v2h-4z"/><path d="m18 46h4v2h-4z"/><path d="m24 46h4v2h-4z"/><path d="m36 46h4v2h-4z"/><path d="m42 46h4v2h-4z"/><path d="m48 46h4v2h-4z"/><path d="m30 46h4v2h-4z"/><path d="m21.445 17.832 6 4 1.11-1.664-4.755-3.168 4.752-3.168-1.11-1.664-6 4a1 1 0 0 0 0 1.664z"/><path d="m36.555 21.832 6-4a1 1 0 0 0 0-1.664l-6-4-1.11 1.664 4.755 3.168-4.752 3.168z"/><path d="m26.901 16h10.198v2h-10.198z" transform="matrix(.196 -.981 .981 .196 9.049 45.04)"/></g></svg>